<svg width="48" height="34" viewBox="0 0 48 34" fill="none" xmlns="http://www.w3.org/2000/svg">
<path d="M0 4C0 1.79086 1.79086 0 4 0H44C46.2091 0 48 1.79086 48 4V30C48 32.2091 46.2091 34 44 34H4C1.79086 34 0 32.2091 0 30V4Z" fill="#62C3C6" fill-opacity="0.3"/>
<path d="M14.5195 9.71092H16.725L15.5531 8.53905V10.7445L16.725 9.57264H14.5195L15.6914 10.7445V8.53905C15.6914 8.23905 15.5601 7.92264 15.3492 7.70936C15.1453 7.50545 14.8125 7.35311 14.5195 7.36717C14.2172 7.38123 13.9031 7.47967 13.6898 7.70936C13.4789 7.93905 13.3476 8.2203 13.3476 8.53905V10.7445C13.3476 11.3773 13.8844 11.9164 14.5195 11.9164H16.725C17.3578 11.9164 17.8969 11.3797 17.8969 10.7445V8.53905C17.8969 7.90623 17.3601 7.36717 16.725 7.36717H14.5195C14.2195 7.36717 13.9031 7.49842 13.6898 7.70936C13.4859 7.91327 13.3336 8.24608 13.3476 8.53905C13.3617 8.84139 13.4601 9.15545 13.6898 9.36873C13.9195 9.57967 14.2031 9.71092 14.5195 9.71092ZM20.9859 10.8148H32.0765C32.5851 10.8148 33.0961 10.8219 33.6047 10.8148H33.6258C33.9258 10.8148 34.2422 10.6836 34.4555 10.4726C34.6594 10.2687 34.8117 9.93592 34.7976 9.64295C34.7836 9.34061 34.6851 9.02655 34.4555 8.81327C34.2258 8.60233 33.9445 8.47108 33.6258 8.47108H22.5351C22.0265 8.47108 21.5156 8.46405 21.007 8.47108H20.9859C20.6859 8.47108 20.3695 8.60233 20.1562 8.81327C19.9523 9.01717 19.8 9.34998 19.814 9.64295C19.8281 9.9453 19.9265 10.2594 20.1562 10.4726C20.3859 10.6812 20.6672 10.8148 20.9859 10.8148ZM14.5195 17.068H16.725L15.5531 15.8961V18.1015L16.725 16.9297H14.5195L15.6914 18.1015V15.8961C15.6914 15.5961 15.5601 15.2797 15.3492 15.0664C15.1453 14.8625 14.8125 14.7101 14.5195 14.7242C14.2172 14.7383 13.9031 14.8367 13.6898 15.0664C13.4789 15.2961 13.3476 15.5773 13.3476 15.8961V18.1015C13.3476 18.7344 13.8844 19.2734 14.5195 19.2734H16.725C17.3578 19.2734 17.8969 18.7367 17.8969 18.1015V15.8961C17.8969 15.2633 17.3601 14.7242 16.725 14.7242H14.5195C14.2195 14.7242 13.9031 14.8555 13.6898 15.0664C13.4859 15.2703 13.3336 15.6031 13.3476 15.8961C13.3617 16.1984 13.4601 16.5125 13.6898 16.7258C13.9195 16.9367 14.2031 17.068 14.5195 17.068ZM20.9859 18.1719H32.0765C32.5851 18.1719 33.0961 18.1789 33.6047 18.1719H33.6258C33.9258 18.1719 34.2422 18.0406 34.4555 17.8297C34.6594 17.6258 34.8117 17.293 34.7976 17C34.7836 16.6976 34.6851 16.3836 34.4555 16.1703C34.2258 15.9594 33.9445 15.8281 33.6258 15.8281H22.5351C22.0265 15.8281 21.5156 15.8211 21.007 15.8281H20.9859C20.6859 15.8281 20.3695 15.9594 20.1562 16.1703C19.9523 16.3742 19.8 16.707 19.814 17C19.8281 17.3023 19.9265 17.6164 20.1562 17.8297C20.3859 18.0383 20.6672 18.1719 20.9859 18.1719ZM14.5195 24.4273H16.725L15.5531 23.2555V25.4609L16.725 24.289H14.5195L15.6914 25.4609V23.2555C15.6914 22.9555 15.5601 22.639 15.3492 22.4258C15.1453 22.2219 14.8125 22.0695 14.5195 22.0836C14.2172 22.0976 13.9031 22.1961 13.6898 22.4258C13.4789 22.6555 13.3476 22.9367 13.3476 23.2555V25.4609C13.3476 26.0937 13.8844 26.6328 14.5195 26.6328H16.725C17.3578 26.6328 17.8969 26.0961 17.8969 25.4609V23.2555C17.8969 22.6226 17.3601 22.0836 16.725 22.0836H14.5195C14.2195 22.0836 13.9031 22.2148 13.6898 22.4258C13.4859 22.6297 13.3336 22.9625 13.3476 23.2555C13.3617 23.5578 13.4601 23.8719 13.6898 24.0851C13.9195 24.2937 14.2031 24.4273 14.5195 24.4273ZM20.9859 25.5289H32.0765C32.5851 25.5289 33.0961 25.5359 33.6047 25.5289H33.6258C33.9258 25.5289 34.2422 25.3976 34.4555 25.1867C34.6594 24.9828 34.8117 24.65 34.7976 24.357C34.7836 24.0547 34.6851 23.7406 34.4555 23.5273C34.2258 23.3164 33.9445 23.1851 33.6258 23.1851H22.5351C22.0265 23.1851 21.5156 23.1781 21.007 23.1851H20.9859C20.6859 23.1851 20.3695 23.3164 20.1562 23.5273C19.9523 23.7312 19.8 24.064 19.814 24.357C19.8281 24.6594 19.9265 24.9734 20.1562 25.1867C20.3859 25.3953 20.6672 25.5289 20.9859 25.5289Z" fill="#045A5C"/>
</svg>
