<svg width="404" height="20" viewBox="0 0 404 20" fill="none" xmlns="http://www.w3.org/2000/svg">
<path d="M9.6 15V3.32H11.168V15H9.6ZM1.696 15V3.32H3.264V15H1.696ZM2.944 9.896V8.488H9.92V9.896H2.944ZM18.2674 15.288C17.5207 15.288 16.8647 15.16 16.2994 14.904C15.734 14.648 15.254 14.312 14.8594 13.896C14.4754 13.4693 14.182 12.9947 13.9794 12.472C13.7874 11.9493 13.6914 11.416 13.6914 10.872V10.584C13.6914 10.04 13.7927 9.50667 13.9954 8.984C14.198 8.45067 14.4967 7.976 14.8914 7.56C15.286 7.13333 15.766 6.79733 16.3314 6.552C16.8967 6.296 17.542 6.168 18.2674 6.168C18.9927 6.168 19.638 6.296 20.2034 6.552C20.7687 6.79733 21.2487 7.13333 21.6434 7.56C22.038 7.976 22.3367 8.45067 22.5394 8.984C22.742 9.50667 22.8434 10.04 22.8434 10.584V10.872C22.8434 11.416 22.742 11.9493 22.5394 12.472C22.3474 12.9947 22.054 13.4693 21.6594 13.896C21.2754 14.312 20.8007 14.648 20.2354 14.904C19.67 15.16 19.014 15.288 18.2674 15.288ZM18.2674 13.912C18.9074 13.912 19.4514 13.7733 19.8994 13.496C20.358 13.208 20.7047 12.824 20.9394 12.344C21.1847 11.864 21.3074 11.3253 21.3074 10.728C21.3074 10.12 21.1847 9.576 20.9394 9.096C20.694 8.616 20.342 8.23733 19.8834 7.96C19.4354 7.68267 18.8967 7.544 18.2674 7.544C17.6487 7.544 17.11 7.68267 16.6514 7.96C16.1927 8.23733 15.8407 8.616 15.5954 9.096C15.35 9.576 15.2274 10.12 15.2274 10.728C15.2274 11.3253 15.3447 11.864 15.5794 12.344C15.8247 12.824 16.1714 13.208 16.6194 13.496C17.078 13.7733 17.6274 13.912 18.2674 13.912ZM25.1439 15V6.456H26.3599V10.12H26.1679C26.1679 9.288 26.2745 8.584 26.4879 8.008C26.7119 7.42133 27.0425 6.97333 27.4799 6.664C27.9172 6.35467 28.4719 6.2 29.1439 6.2H29.2079C29.8799 6.2 30.4345 6.35467 30.8719 6.664C31.3199 6.97333 31.6505 7.42133 31.8639 8.008C32.0772 8.584 32.1839 9.288 32.1839 10.12H31.7359C31.7359 9.288 31.8479 8.584 32.0719 8.008C32.2959 7.42133 32.6265 6.97333 33.0639 6.664C33.5119 6.35467 34.0719 6.2 34.7439 6.2H34.8079C35.4799 6.2 36.0399 6.35467 36.4879 6.664C36.9359 6.97333 37.2665 7.42133 37.4799 8.008C37.7039 8.584 37.8159 9.288 37.8159 10.12V15H36.2799V9.784C36.2799 9.09067 36.1092 8.55733 35.7679 8.184C35.4265 7.8 34.9519 7.608 34.3439 7.608C33.7145 7.608 33.2079 7.81067 32.8239 8.216C32.4399 8.61067 32.2479 9.16533 32.2479 9.88V15H30.7119V9.784C30.7119 9.09067 30.5412 8.55733 30.1999 8.184C29.8585 7.8 29.3839 7.608 28.7759 7.608C28.1465 7.608 27.6399 7.81067 27.2559 8.216C26.8719 8.61067 26.6799 9.16533 26.6799 9.88V15H25.1439ZM44.2603 15.288C43.5136 15.288 42.8683 15.16 42.3243 14.904C41.7803 14.648 41.3376 14.312 40.9963 13.896C40.6549 13.4693 40.3989 12.9947 40.2283 12.472C40.0683 11.9493 39.9883 11.416 39.9883 10.872V10.584C39.9883 10.0293 40.0683 9.49067 40.2283 8.968C40.3989 8.44533 40.6549 7.976 40.9963 7.56C41.3376 7.13333 41.7696 6.79733 42.2923 6.552C42.8256 6.296 43.4496 6.168 44.1643 6.168C45.0923 6.168 45.8549 6.37067 46.4523 6.776C47.0603 7.17067 47.5083 7.68267 47.7963 8.312C48.0949 8.94133 48.2443 9.61333 48.2443 10.328V11.016H40.6603V9.864H47.1243L46.7723 10.488C46.7723 9.88 46.6763 9.35733 46.4843 8.92C46.2923 8.472 46.0043 8.12533 45.6203 7.88C45.2363 7.63467 44.7509 7.512 44.1643 7.512C43.5563 7.512 43.0496 7.65067 42.6443 7.928C42.2496 8.20533 41.9509 8.584 41.7483 9.064C41.5563 9.544 41.4603 10.0987 41.4603 10.728C41.4603 11.336 41.5563 11.8853 41.7483 12.376C41.9509 12.856 42.2603 13.24 42.6763 13.528C43.0923 13.8053 43.6203 13.944 44.2603 13.944C44.9323 13.944 45.4763 13.7947 45.8923 13.496C46.3189 13.1973 46.5749 12.8507 46.6603 12.456H48.1003C47.9829 13.0427 47.7483 13.5493 47.3963 13.976C47.0443 14.4027 46.6016 14.728 46.0683 14.952C45.5349 15.176 44.9323 15.288 44.2603 15.288Z" fill="#62C3C6"/>
<g clip-path="url(#clip0_1_268)">
<path d="M88.7709 9.44699L88.7702 9.44625L84.688 5.38375C84.3821 5.07941 83.8875 5.08054 83.5831 5.3864C83.2787 5.69222 83.2799 6.18687 83.5857 6.49125L86.3265 9.21875H69.7812C69.3498 9.21875 69 9.56851 69 10C69 10.4315 69.3498 10.7812 69.7812 10.7812H86.3264L83.5857 13.5087C83.2799 13.8131 83.2788 14.3078 83.5831 14.6136C83.8875 14.9195 84.3822 14.9205 84.688 14.6162L88.7702 10.5537L88.7709 10.553C89.0769 10.2476 89.0759 9.75136 88.7709 9.44699Z" fill="#62C3C6"/>
</g>
<path d="M110.696 15V3.32H112.264V15H110.696ZM111.944 15V13.592H117.288V15H111.944ZM119.591 15V6.456H121.127V15H119.591ZM118.279 7.672V6.456H121.127V7.672H118.279ZM120.023 5.08C119.682 5.08 119.426 4.98933 119.255 4.808C119.095 4.62667 119.015 4.39733 119.015 4.12C119.015 3.84267 119.095 3.61333 119.255 3.432C119.426 3.25067 119.682 3.16 120.023 3.16C120.364 3.16 120.615 3.25067 120.775 3.432C120.946 3.61333 121.031 3.84267 121.031 4.12C121.031 4.39733 120.946 4.62667 120.775 4.808C120.615 4.98933 120.364 5.08 120.023 5.08ZM125.921 15L123.009 6.456H124.609L127.457 15H125.921ZM126.305 15V13.784H128.161V15H126.305ZM127.041 15L129.521 6.456H131.025L128.497 15H127.041ZM136.51 15.288C135.764 15.288 135.118 15.16 134.574 14.904C134.03 14.648 133.588 14.312 133.246 13.896C132.905 13.4693 132.649 12.9947 132.478 12.472C132.318 11.9493 132.238 11.416 132.238 10.872V10.584C132.238 10.0293 132.318 9.49067 132.478 8.968C132.649 8.44533 132.905 7.976 133.246 7.56C133.588 7.13333 134.02 6.79733 134.542 6.552C135.076 6.296 135.7 6.168 136.414 6.168C137.342 6.168 138.105 6.37067 138.702 6.776C139.31 7.17067 139.758 7.68267 140.046 8.312C140.345 8.94133 140.494 9.61333 140.494 10.328V11.016H132.91V9.864H139.374L139.022 10.488C139.022 9.88 138.926 9.35733 138.734 8.92C138.542 8.472 138.254 8.12533 137.87 7.88C137.486 7.63467 137.001 7.512 136.414 7.512C135.806 7.512 135.3 7.65067 134.894 7.928C134.5 8.20533 134.201 8.584 133.998 9.064C133.806 9.544 133.71 10.0987 133.71 10.728C133.71 11.336 133.806 11.8853 133.998 12.376C134.201 12.856 134.51 13.24 134.926 13.528C135.342 13.8053 135.87 13.944 136.51 13.944C137.182 13.944 137.726 13.7947 138.142 13.496C138.569 13.1973 138.825 12.8507 138.91 12.456H140.35C140.233 13.0427 139.998 13.5493 139.646 13.976C139.294 14.4027 138.852 14.728 138.318 14.952C137.785 15.176 137.182 15.288 136.51 15.288ZM147.187 15.288C146.483 15.288 145.854 15.1333 145.299 14.824C144.755 14.5147 144.323 14.0667 144.003 13.48C143.683 12.8827 143.507 12.168 143.475 11.336H143.891V15H142.675V3.32H144.211V9L143.667 10.168C143.71 9.24 143.896 8.48267 144.227 7.896C144.558 7.30933 144.99 6.87733 145.523 6.6C146.067 6.312 146.664 6.168 147.315 6.168C147.923 6.168 148.478 6.28533 148.979 6.52C149.48 6.744 149.912 7.05867 150.275 7.464C150.638 7.85867 150.915 8.32267 151.107 8.856C151.299 9.37867 151.395 9.944 151.395 10.552V10.84C151.395 11.448 151.294 12.0187 151.091 12.552C150.899 13.0853 150.616 13.56 150.243 13.976C149.87 14.3813 149.422 14.7013 148.899 14.936C148.387 15.1707 147.816 15.288 147.187 15.288ZM147.011 13.944C147.587 13.944 148.088 13.8053 148.515 13.528C148.942 13.2507 149.272 12.872 149.507 12.392C149.742 11.9013 149.859 11.336 149.859 10.696C149.859 10.056 149.736 9.496 149.491 9.016C149.256 8.536 148.926 8.168 148.499 7.912C148.072 7.64533 147.576 7.512 147.011 7.512C146.499 7.512 146.024 7.62933 145.587 7.864C145.15 8.088 144.798 8.41867 144.531 8.856C144.275 9.28267 144.147 9.8 144.147 10.408V11.144C144.147 11.7307 144.28 12.232 144.547 12.648C144.814 13.064 145.166 13.384 145.603 13.608C146.04 13.832 146.51 13.944 147.011 13.944ZM157.338 15.288C156.592 15.288 155.946 15.16 155.402 14.904C154.858 14.648 154.416 14.312 154.074 13.896C153.733 13.4693 153.477 12.9947 153.306 12.472C153.146 11.9493 153.066 11.416 153.066 10.872V10.584C153.066 10.0293 153.146 9.49067 153.306 8.968C153.477 8.44533 153.733 7.976 154.074 7.56C154.416 7.13333 154.848 6.79733 155.37 6.552C155.904 6.296 156.528 6.168 157.242 6.168C158.17 6.168 158.933 6.37067 159.53 6.776C160.138 7.17067 160.586 7.68267 160.874 8.312C161.173 8.94133 161.322 9.61333 161.322 10.328V11.016H153.738V9.864H160.202L159.85 10.488C159.85 9.88 159.754 9.35733 159.562 8.92C159.37 8.472 159.082 8.12533 158.698 7.88C158.314 7.63467 157.829 7.512 157.242 7.512C156.634 7.512 156.128 7.65067 155.722 7.928C155.328 8.20533 155.029 8.584 154.826 9.064C154.634 9.544 154.538 10.0987 154.538 10.728C154.538 11.336 154.634 11.8853 154.826 12.376C155.029 12.856 155.338 13.24 155.754 13.528C156.17 13.8053 156.698 13.944 157.338 13.944C158.01 13.944 158.554 13.7947 158.97 13.496C159.397 13.1973 159.653 12.8507 159.738 12.456H161.178C161.061 13.0427 160.826 13.5493 160.474 13.976C160.122 14.4027 159.68 14.728 159.146 14.952C158.613 15.176 158.01 15.288 157.338 15.288ZM166.303 15.256C165.183 15.256 164.314 15.016 163.695 14.536C163.087 14.056 162.773 13.4 162.751 12.568H164.191C164.213 12.8987 164.378 13.2133 164.687 13.512C165.007 13.8 165.546 13.944 166.303 13.944C166.986 13.944 167.509 13.8107 167.871 13.544C168.234 13.2667 168.415 12.9307 168.415 12.536C168.415 12.184 168.282 11.912 168.015 11.72C167.749 11.5173 167.317 11.384 166.719 11.32L165.791 11.224C164.981 11.1387 164.319 10.8987 163.807 10.504C163.295 10.0987 163.039 9.53333 163.039 8.808C163.039 8.264 163.178 7.8 163.455 7.416C163.733 7.02133 164.117 6.72267 164.607 6.52C165.098 6.30667 165.663 6.2 166.303 6.2C167.263 6.2 168.042 6.41333 168.639 6.84C169.237 7.26667 169.546 7.90133 169.567 8.744H168.127C168.117 8.40267 167.957 8.11467 167.647 7.88C167.349 7.63467 166.901 7.512 166.303 7.512C165.706 7.512 165.253 7.63467 164.943 7.88C164.634 8.12533 164.479 8.43467 164.479 8.808C164.479 9.128 164.586 9.384 164.799 9.576C165.023 9.768 165.386 9.89067 165.887 9.944L166.815 10.04C167.733 10.136 168.469 10.392 169.023 10.808C169.578 11.2133 169.855 11.7893 169.855 12.536C169.855 13.0693 169.701 13.544 169.391 13.96C169.093 14.3653 168.677 14.6853 168.143 14.92C167.61 15.144 166.997 15.256 166.303 15.256ZM175.409 15.096C174.769 15.096 174.215 15.0053 173.745 14.824C173.287 14.6427 172.929 14.3333 172.673 13.896C172.428 13.448 172.305 12.8453 172.305 12.088V3.864H173.777V12.28C173.777 12.7387 173.9 13.096 174.145 13.352C174.401 13.5973 174.759 13.72 175.217 13.72H176.721V15.096H175.409ZM170.833 7.608V6.456H176.721V7.608H170.833ZM184.031 15V12.44H183.775V9.48C183.775 8.89333 183.62 8.45067 183.311 8.152C183.012 7.85333 182.569 7.704 181.983 7.704C181.652 7.704 181.311 7.70933 180.959 7.72C180.607 7.73067 180.271 7.74133 179.951 7.752C179.631 7.76267 179.353 7.77867 179.119 7.8V6.456C179.353 6.43467 179.599 6.41867 179.855 6.408C180.121 6.38667 180.393 6.376 180.671 6.376C180.948 6.36533 181.215 6.36 181.471 6.36C182.345 6.36 183.06 6.46667 183.615 6.68C184.169 6.88267 184.58 7.21867 184.847 7.688C185.113 8.15733 185.247 8.792 185.247 9.592V15H184.031ZM181.231 15.224C180.591 15.224 180.036 15.1173 179.567 14.904C179.108 14.68 178.751 14.36 178.495 13.944C178.249 13.528 178.127 13.0267 178.127 12.44C178.127 11.832 178.26 11.3253 178.527 10.92C178.804 10.5147 179.204 10.2107 179.727 10.008C180.249 9.79467 180.879 9.688 181.615 9.688H183.935V10.84H181.551C180.932 10.84 180.457 10.9893 180.127 11.288C179.796 11.5867 179.631 11.9707 179.631 12.44C179.631 12.9093 179.796 13.288 180.127 13.576C180.457 13.864 180.932 14.008 181.551 14.008C181.913 14.008 182.26 13.944 182.591 13.816C182.921 13.6773 183.193 13.4533 183.407 13.144C183.631 12.824 183.753 12.3867 183.775 11.832L184.191 12.44C184.137 13.048 183.988 13.56 183.743 13.976C183.508 14.3813 183.177 14.6907 182.751 14.904C182.335 15.1173 181.828 15.224 181.231 15.224ZM188.066 15V6.456H189.282V10.12H189.09C189.09 9.27733 189.202 8.568 189.426 7.992C189.66 7.40533 190.012 6.96267 190.482 6.664C190.951 6.35467 191.543 6.2 192.258 6.2H192.322C193.399 6.2 194.194 6.536 194.706 7.208C195.228 7.88 195.49 8.85067 195.49 10.12V15H193.954V9.8C193.954 9.13867 193.767 8.61067 193.394 8.216C193.02 7.81067 192.508 7.608 191.858 7.608C191.186 7.608 190.642 7.816 190.226 8.232C189.81 8.648 189.602 9.20267 189.602 9.896V15H188.066ZM201.868 15.288C201.26 15.288 200.7 15.176 200.188 14.952C199.676 14.728 199.228 14.4133 198.844 14.008C198.471 13.6027 198.177 13.1333 197.964 12.6C197.761 12.0667 197.66 11.4907 197.66 10.872V10.584C197.66 9.976 197.761 9.40533 197.964 8.872C198.167 8.33867 198.449 7.86933 198.812 7.464C199.185 7.05867 199.623 6.744 200.124 6.52C200.636 6.28533 201.201 6.168 201.82 6.168C202.471 6.168 203.063 6.30667 203.596 6.584C204.129 6.85067 204.567 7.272 204.908 7.848C205.249 8.424 205.441 9.17067 205.484 10.088L204.844 9.064V3.32H206.38V15H205.164V11.208H205.612C205.569 12.1787 205.367 12.968 205.004 13.576C204.641 14.1733 204.183 14.6107 203.628 14.888C203.084 15.1547 202.497 15.288 201.868 15.288ZM202.076 13.944C202.599 13.944 203.073 13.8267 203.5 13.592C203.927 13.3573 204.268 13.0213 204.524 12.584C204.78 12.136 204.908 11.6133 204.908 11.016V10.28C204.908 9.69333 204.775 9.19733 204.508 8.792C204.252 8.376 203.905 8.06133 203.468 7.848C203.041 7.624 202.572 7.512 202.06 7.512C201.495 7.512 200.993 7.64533 200.556 7.912C200.129 8.17867 199.793 8.552 199.548 9.032C199.313 9.512 199.196 10.0773 199.196 10.728C199.196 11.3787 199.319 11.9493 199.564 12.44C199.809 12.92 200.151 13.2933 200.588 13.56C201.025 13.816 201.521 13.944 202.076 13.944Z" fill="#62C3C6"/>
<g clip-path="url(#clip1_1_268)">
<path d="M247.771 9.44699L247.77 9.44625L243.688 5.38375C243.382 5.07941 242.887 5.08054 242.583 5.3864C242.279 5.69222 242.28 6.18687 242.586 6.49125L245.326 9.21875H228.781C228.35 9.21875 228 9.56851 228 10C228 10.4315 228.35 10.7812 228.781 10.7812H245.326L242.586 13.5087C242.28 13.8131 242.279 14.3078 242.583 14.6136C242.888 14.9195 243.382 14.9205 243.688 14.6162L247.77 10.5537L247.771 10.553C248.077 10.2476 248.076 9.75136 247.771 9.44699Z" fill="#62C3C6"/>
</g>
<path d="M274.672 15.304C273.616 15.304 272.709 15.1227 271.952 14.76C271.195 14.3867 270.576 13.9013 270.096 13.304C269.616 12.696 269.259 12.0453 269.024 11.352C268.8 10.648 268.688 9.96533 268.688 9.304V8.952C268.688 8.22667 268.805 7.512 269.04 6.808C269.275 6.09333 269.632 5.448 270.112 4.872C270.603 4.296 271.216 3.83733 271.952 3.496C272.699 3.144 273.579 2.968 274.592 2.968C275.648 2.968 276.581 3.16533 277.392 3.56C278.203 3.95467 278.848 4.504 279.328 5.208C279.819 5.90133 280.107 6.71733 280.192 7.656H277.552C277.477 7.18667 277.307 6.78667 277.04 6.456C276.773 6.12533 276.427 5.86933 276 5.688C275.584 5.50667 275.115 5.416 274.592 5.416C274.069 5.416 273.605 5.50667 273.2 5.688C272.795 5.86933 272.453 6.12533 272.176 6.456C271.909 6.78667 271.701 7.18133 271.552 7.64C271.413 8.088 271.344 8.58933 271.344 9.144C271.344 9.688 271.413 10.1893 271.552 10.648C271.701 11.096 271.915 11.4907 272.192 11.832C272.48 12.1627 272.832 12.4187 273.248 12.6C273.664 12.7707 274.139 12.856 274.672 12.856C275.483 12.856 276.165 12.6587 276.72 12.264C277.285 11.8693 277.627 11.3253 277.744 10.632H280.368C280.272 11.4853 279.984 12.2693 279.504 12.984C279.035 13.688 278.389 14.2533 277.568 14.68C276.757 15.096 275.792 15.304 274.672 15.304ZM287.261 15V12.408H286.829V9.592C286.829 9.144 286.722 8.808 286.509 8.584C286.296 8.36 285.954 8.248 285.485 8.248C285.25 8.248 284.941 8.25333 284.557 8.264C284.173 8.27467 283.778 8.29067 283.373 8.312C282.968 8.33333 282.6 8.35467 282.269 8.376V6.216C282.514 6.19467 282.802 6.17333 283.133 6.152C283.464 6.13067 283.805 6.11467 284.157 6.104C284.509 6.09333 284.84 6.088 285.149 6.088C286.045 6.088 286.797 6.216 287.405 6.472C288.024 6.728 288.493 7.11733 288.813 7.64C289.133 8.152 289.293 8.81333 289.293 9.624V15H287.261ZM284.461 15.224C283.832 15.224 283.277 15.112 282.797 14.888C282.328 14.664 281.96 14.344 281.693 13.928C281.426 13.5013 281.293 12.9947 281.293 12.408C281.293 11.768 281.458 11.2453 281.789 10.84C282.12 10.424 282.584 10.12 283.181 9.928C283.778 9.72533 284.466 9.624 285.245 9.624H287.117V11.048H285.229C284.781 11.048 284.434 11.16 284.189 11.384C283.954 11.5973 283.837 11.8907 283.837 12.264C283.837 12.616 283.954 12.904 284.189 13.128C284.434 13.3413 284.781 13.448 285.229 13.448C285.517 13.448 285.773 13.4 285.997 13.304C286.232 13.1973 286.424 13.0213 286.573 12.776C286.722 12.5307 286.808 12.1893 286.829 11.752L287.437 12.392C287.384 13 287.234 13.512 286.989 13.928C286.754 14.344 286.424 14.664 285.997 14.888C285.581 15.112 285.069 15.224 284.461 15.224ZM291.465 15V6.232H293.497V9.992H293.353C293.353 9.096 293.465 8.34933 293.689 7.752C293.924 7.15467 294.276 6.70667 294.745 6.408C295.214 6.10933 295.785 5.96 296.457 5.96H296.569C297.593 5.96 298.372 6.296 298.905 6.968C299.449 7.62933 299.721 8.63733 299.721 9.992V15H297.161V9.848C297.161 9.37867 297.022 8.99467 296.745 8.696C296.468 8.39733 296.094 8.248 295.625 8.248C295.145 8.248 294.756 8.40267 294.457 8.712C294.169 9.01067 294.025 9.40533 294.025 9.896V15H291.465ZM301.902 15V6.232H303.934V9.992H303.79C303.79 9.096 303.902 8.34933 304.126 7.752C304.361 7.15467 304.713 6.70667 305.182 6.408C305.652 6.10933 306.222 5.96 306.894 5.96H307.006C308.03 5.96 308.809 6.296 309.342 6.968C309.886 7.62933 310.158 8.63733 310.158 9.992V15H307.598V9.848C307.598 9.37867 307.46 8.99467 307.182 8.696C306.905 8.39733 306.532 8.248 306.062 8.248C305.582 8.248 305.193 8.40267 304.894 8.712C304.606 9.01067 304.462 9.40533 304.462 9.896V15H301.902ZM317.636 15V12.408H317.204V9.592C317.204 9.144 317.097 8.808 316.884 8.584C316.671 8.36 316.329 8.248 315.86 8.248C315.625 8.248 315.316 8.25333 314.932 8.264C314.548 8.27467 314.153 8.29067 313.748 8.312C313.343 8.33333 312.975 8.35467 312.644 8.376V6.216C312.889 6.19467 313.177 6.17333 313.508 6.152C313.839 6.13067 314.18 6.11467 314.532 6.104C314.884 6.09333 315.215 6.088 315.524 6.088C316.42 6.088 317.172 6.216 317.78 6.472C318.399 6.728 318.868 7.11733 319.188 7.64C319.508 8.152 319.668 8.81333 319.668 9.624V15H317.636ZM314.836 15.224C314.207 15.224 313.652 15.112 313.172 14.888C312.703 14.664 312.335 14.344 312.068 13.928C311.801 13.5013 311.668 12.9947 311.668 12.408C311.668 11.768 311.833 11.2453 312.164 10.84C312.495 10.424 312.959 10.12 313.556 9.928C314.153 9.72533 314.841 9.624 315.62 9.624H317.492V11.048H315.604C315.156 11.048 314.809 11.16 314.564 11.384C314.329 11.5973 314.212 11.8907 314.212 12.264C314.212 12.616 314.329 12.904 314.564 13.128C314.809 13.3413 315.156 13.448 315.604 13.448C315.892 13.448 316.148 13.4 316.372 13.304C316.607 13.1973 316.799 13.0213 316.948 12.776C317.097 12.5307 317.183 12.1893 317.204 11.752L317.812 12.392C317.759 13 317.609 13.512 317.364 13.928C317.129 14.344 316.799 14.664 316.372 14.888C315.956 15.112 315.444 15.224 314.836 15.224ZM327.232 15.288C326.517 15.288 325.888 15.1387 325.344 14.84C324.8 14.5307 324.373 14.088 324.064 13.512C323.755 12.936 323.589 12.232 323.568 11.4H323.872V15H321.84V3.32H324.4V9.256L323.792 10.024C323.824 9.13867 323.989 8.39733 324.288 7.8C324.597 7.192 325.019 6.73867 325.552 6.44C326.085 6.13067 326.693 5.976 327.376 5.976C327.973 5.976 328.512 6.088 328.992 6.312C329.483 6.52533 329.899 6.83467 330.24 7.24C330.581 7.63467 330.843 8.104 331.024 8.648C331.216 9.192 331.312 9.784 331.312 10.424V10.776C331.312 11.416 331.216 12.008 331.024 12.552C330.843 13.096 330.571 13.576 330.208 13.992C329.856 14.3973 329.429 14.7173 328.928 14.952C328.427 15.176 327.861 15.288 327.232 15.288ZM326.56 13.144C326.997 13.144 327.376 13.0373 327.696 12.824C328.027 12.6107 328.283 12.312 328.464 11.928C328.645 11.5333 328.736 11.0907 328.736 10.6C328.736 10.0987 328.645 9.66133 328.464 9.288C328.283 8.91467 328.027 8.62667 327.696 8.424C327.376 8.21067 326.997 8.104 326.56 8.104C326.176 8.104 325.813 8.19467 325.472 8.376C325.131 8.55733 324.853 8.81867 324.64 9.16C324.437 9.49067 324.336 9.896 324.336 10.376V10.968C324.336 11.4267 324.443 11.8213 324.656 12.152C324.88 12.472 325.163 12.7173 325.504 12.888C325.845 13.0587 326.197 13.144 326.56 13.144ZM333.506 15V6.232H336.066V15H333.506ZM332.338 8.12V6.232H336.066V8.12H332.338ZM334.498 5.368C334.018 5.368 333.661 5.24533 333.426 5C333.202 4.744 333.09 4.424 333.09 4.04C333.09 3.64533 333.202 3.32533 333.426 3.08C333.661 2.824 334.018 2.696 334.498 2.696C334.978 2.696 335.33 2.824 335.554 3.08C335.789 3.32533 335.906 3.64533 335.906 4.04C335.906 4.424 335.789 4.744 335.554 5C335.33 5.24533 334.978 5.368 334.498 5.368ZM341.762 15.272C340.514 15.272 339.538 15.016 338.834 14.504C338.13 13.992 337.756 13.272 337.714 12.344H339.986C340.028 12.6213 340.194 12.872 340.482 13.096C340.78 13.3093 341.223 13.416 341.81 13.416C342.258 13.416 342.626 13.3413 342.914 13.192C343.212 13.032 343.362 12.808 343.362 12.52C343.362 12.264 343.25 12.0613 343.026 11.912C342.802 11.752 342.402 11.64 341.826 11.576L341.138 11.512C340.082 11.4053 339.287 11.112 338.754 10.632C338.231 10.152 337.97 9.53867 337.97 8.792C337.97 8.17333 338.124 7.656 338.434 7.24C338.743 6.824 339.17 6.50933 339.714 6.296C340.268 6.08267 340.898 5.976 341.602 5.976C342.732 5.976 343.644 6.22667 344.338 6.728C345.031 7.21867 345.394 7.93333 345.426 8.872H343.154C343.111 8.584 342.962 8.344 342.706 8.152C342.45 7.94933 342.071 7.848 341.57 7.848C341.175 7.848 340.86 7.92267 340.626 8.072C340.391 8.22133 340.274 8.424 340.274 8.68C340.274 8.92533 340.375 9.112 340.578 9.24C340.78 9.368 341.111 9.45867 341.57 9.512L342.258 9.576C343.335 9.69333 344.172 9.992 344.77 10.472C345.367 10.952 345.666 11.5973 345.666 12.408C345.666 12.9947 345.506 13.5067 345.186 13.944C344.866 14.3707 344.412 14.7013 343.826 14.936C343.239 15.16 342.551 15.272 341.762 15.272ZM353.068 15.08V13.032H355.804C356.294 13.032 356.662 12.904 356.908 12.648C357.153 12.392 357.276 12.0293 357.276 11.56C357.276 11.0907 357.153 10.7333 356.908 10.488C356.662 10.232 356.294 10.104 355.804 10.104H353.068V8.52H355.676C356.486 8.52 357.206 8.62133 357.836 8.824C358.465 9.016 358.961 9.33067 359.324 9.768C359.686 10.2053 359.868 10.7973 359.868 11.544V11.768C359.868 12.4613 359.708 13.0587 359.388 13.56C359.068 14.0507 358.598 14.4293 357.98 14.696C357.361 14.952 356.593 15.08 355.676 15.08H353.068ZM350.828 15.08V3.224H353.388V15.08H350.828ZM353.068 9.688V8.12H355.372C355.873 8.12 356.236 7.992 356.46 7.736C356.684 7.48 356.796 7.13867 356.796 6.712C356.796 6.264 356.684 5.912 356.46 5.656C356.236 5.4 355.873 5.272 355.372 5.272H353.068V3.224H355.212C356.556 3.224 357.585 3.50667 358.3 4.072C359.025 4.63733 359.388 5.44267 359.388 6.488V6.728C359.388 7.45333 359.201 8.03467 358.828 8.472C358.465 8.90933 357.969 9.224 357.34 9.416C356.721 9.59733 356.012 9.688 355.212 9.688H353.068ZM361.874 15V3.32H364.45V15H361.874ZM360.834 5.208V3.32H364.45V5.208H360.834ZM369.769 15.272C368.755 15.272 367.977 14.9467 367.433 14.296C366.889 13.6347 366.617 12.6427 366.617 11.32V6.232H369.177V11.448C369.177 11.9173 369.31 12.2907 369.577 12.568C369.843 12.8453 370.201 12.984 370.649 12.984C371.107 12.984 371.481 12.84 371.769 12.552C372.057 12.264 372.201 11.8747 372.201 11.384V6.232H374.761V15H372.729V11.304H372.905C372.905 12.1893 372.787 12.9307 372.553 13.528C372.329 14.1147 371.993 14.552 371.545 14.84C371.097 15.128 370.542 15.272 369.881 15.272H369.769ZM368.969 4.904C368.489 4.904 368.142 4.776 367.929 4.52C367.715 4.264 367.609 3.94933 367.609 3.576C367.609 3.192 367.715 2.872 367.929 2.616C368.142 2.36 368.489 2.232 368.969 2.232C369.438 2.232 369.779 2.36 369.993 2.616C370.206 2.872 370.313 3.192 370.313 3.576C370.313 3.94933 370.206 4.264 369.993 4.52C369.779 4.776 369.438 4.904 368.969 4.904ZM372.409 4.904C371.929 4.904 371.582 4.776 371.369 4.52C371.155 4.264 371.049 3.94933 371.049 3.576C371.049 3.192 371.155 2.872 371.369 2.616C371.582 2.36 371.929 2.232 372.409 2.232C372.878 2.232 373.219 2.36 373.433 2.616C373.646 2.872 373.753 3.192 373.753 3.576C373.753 3.94933 373.646 4.264 373.433 4.52C373.219 4.776 372.878 4.904 372.409 4.904ZM381.105 15.112C380.22 15.112 379.505 15.0053 378.961 14.792C378.417 14.568 378.017 14.2 377.761 13.688C377.516 13.1653 377.393 12.4613 377.393 11.576V3.864H379.777V11.672C379.777 12.088 379.884 12.408 380.097 12.632C380.321 12.8453 380.636 12.952 381.041 12.952H382.337V15.112H381.105ZM376.065 8.104V6.232H382.337V8.104H376.065ZM388.043 15.304C387.297 15.304 386.635 15.176 386.059 14.92C385.494 14.664 385.019 14.3227 384.635 13.896C384.262 13.4587 383.974 12.9733 383.771 12.44C383.579 11.896 383.483 11.3413 383.483 10.776V10.456C383.483 9.86933 383.579 9.30933 383.771 8.776C383.974 8.232 384.262 7.74667 384.635 7.32C385.009 6.89333 385.473 6.55733 386.027 6.312C386.593 6.056 387.233 5.928 387.947 5.928C388.886 5.928 389.675 6.14133 390.315 6.568C390.966 6.984 391.462 7.53333 391.803 8.216C392.145 8.888 392.315 9.624 392.315 10.424V11.288H384.555V9.832H390.763L389.931 10.504C389.931 9.98133 389.857 9.53333 389.707 9.16C389.558 8.78667 389.334 8.504 389.035 8.312C388.747 8.10933 388.385 8.008 387.947 8.008C387.499 8.008 387.121 8.10933 386.811 8.312C386.502 8.51467 386.267 8.81333 386.107 9.208C385.947 9.592 385.867 10.0667 385.867 10.632C385.867 11.1547 385.942 11.6133 386.091 12.008C386.241 12.392 386.475 12.6907 386.795 12.904C387.115 13.1173 387.531 13.224 388.043 13.224C388.513 13.224 388.897 13.1333 389.195 12.952C389.494 12.7707 389.697 12.5467 389.803 12.28H392.155C392.027 12.8667 391.777 13.3893 391.403 13.848C391.03 14.3067 390.561 14.664 389.995 14.92C389.43 15.176 388.779 15.304 388.043 15.304ZM394.012 15V6.232H396.044V9.992H395.9C395.9 9.096 396.012 8.34933 396.236 7.752C396.47 7.15467 396.822 6.70667 397.292 6.408C397.761 6.10933 398.332 5.96 399.004 5.96H399.116C400.14 5.96 400.918 6.296 401.452 6.968C401.996 7.62933 402.268 8.63733 402.268 9.992V15H399.708V9.848C399.708 9.37867 399.569 8.99467 399.292 8.696C399.014 8.39733 398.641 8.248 398.172 8.248C397.692 8.248 397.302 8.40267 397.004 8.712C396.716 9.01067 396.572 9.40533 396.572 9.896V15H394.012Z" fill="#045A5C"/>
<defs>
<clipPath id="clip0_1_268">
<rect width="20" height="20" fill="white" transform="translate(69)"/>
</clipPath>
<clipPath id="clip1_1_268">
<rect width="20" height="20" fill="white" transform="translate(228)"/>
</clipPath>
</defs>
</svg>
