<svg width="310" height="41" viewBox="0 0 310 41" fill="none" xmlns="http://www.w3.org/2000/svg">
<rect x="20" y="20" width="119" height="21" rx="10.5" fill="#A10C0C" fill-opacity="0.05"/>
<circle cx="34" cy="30.5" r="2" fill="#A10C0C"/>
<path d="M41.164 35V28.652H41.884V31.316H41.74C41.74 30.724 41.828 30.216 42.004 29.792C42.18 29.368 42.444 29.04 42.796 28.808C43.148 28.576 43.592 28.46 44.128 28.46H44.164C44.964 28.46 45.56 28.712 45.952 29.216C46.344 29.712 46.54 30.412 46.54 31.316V35H45.652V31.124C45.652 30.572 45.5 30.128 45.196 29.792C44.892 29.456 44.468 29.288 43.924 29.288C43.364 29.288 42.912 29.464 42.568 29.816C42.232 30.16 42.064 30.616 42.064 31.184V35H41.164ZM49.2372 35V28.652H50.1252V35H49.2372ZM48.2172 29.372V28.652H50.1252V29.372H48.2172ZM49.4292 27.476C49.2132 27.476 49.0492 27.42 48.9372 27.308C48.8332 27.188 48.7812 27.04 48.7812 26.864C48.7812 26.688 48.8332 26.544 48.9372 26.432C49.0492 26.312 49.2132 26.252 49.4292 26.252C49.6452 26.252 49.8052 26.312 49.9092 26.432C50.0132 26.544 50.0652 26.688 50.0652 26.864C50.0652 27.04 50.0132 27.188 49.9092 27.308C49.8052 27.42 49.6452 27.476 49.4292 27.476ZM55.2831 35.204C54.7471 35.204 54.2791 35.112 53.8791 34.928C53.4871 34.736 53.1591 34.48 52.8951 34.16C52.6311 33.832 52.4311 33.472 52.2951 33.08C52.1671 32.688 52.1031 32.292 52.1031 31.892V31.724C52.1031 31.316 52.1671 30.92 52.2951 30.536C52.4311 30.144 52.6311 29.792 52.8951 29.48C53.1591 29.16 53.4871 28.908 53.8791 28.724C54.2791 28.532 54.7391 28.436 55.2591 28.436C55.7871 28.436 56.2551 28.532 56.6631 28.724C57.0791 28.916 57.4151 29.188 57.6711 29.54C57.9271 29.892 58.0791 30.308 58.1271 30.788H57.2631C57.1911 30.348 56.9831 29.984 56.6391 29.696C56.3031 29.4 55.8431 29.252 55.2591 29.252C54.7551 29.252 54.3351 29.368 53.9991 29.6C53.6711 29.824 53.4231 30.132 53.2551 30.524C53.0871 30.908 53.0031 31.336 53.0031 31.808C53.0031 32.272 53.0871 32.704 53.2551 33.104C53.4231 33.496 53.6751 33.812 54.0111 34.052C54.3471 34.284 54.7711 34.4 55.2831 34.4C55.6751 34.4 56.0151 34.332 56.3031 34.196C56.5991 34.052 56.8351 33.86 57.0111 33.62C57.1951 33.38 57.3031 33.116 57.3351 32.828H58.1991C58.1671 33.308 58.0151 33.728 57.7431 34.088C57.4791 34.44 57.1351 34.716 56.7111 34.916C56.2871 35.108 55.8111 35.204 55.2831 35.204ZM59.9693 35V26.24H60.8693V31.196L60.6053 31.4C60.6053 30.808 60.6893 30.292 60.8573 29.852C61.0333 29.412 61.2933 29.072 61.6373 28.832C61.9893 28.584 62.4293 28.46 62.9573 28.46H63.0053C63.7733 28.46 64.3533 28.712 64.7453 29.216C65.1453 29.72 65.3453 30.42 65.3453 31.316V35H64.4573V31.124C64.4573 30.556 64.3013 30.108 63.9893 29.78C63.6773 29.452 63.2573 29.288 62.7293 29.288C62.1613 29.288 61.7093 29.472 61.3733 29.84C61.0373 30.2 60.8693 30.676 60.8693 31.268V35H59.9693ZM70.0105 35.072C69.5705 35.072 69.1905 35.008 68.8705 34.88C68.5505 34.752 68.3025 34.536 68.1265 34.232C67.9505 33.92 67.8625 33.504 67.8625 32.984V26.648H68.7265V33.116C68.7265 33.484 68.8265 33.768 69.0265 33.968C69.2265 34.16 69.5105 34.256 69.8785 34.256H71.0185V35.072H70.0105ZM66.7225 29.336V28.652H71.0185V29.336H66.7225ZM75.8581 35V26.24H76.7581V35H75.8581ZM74.9341 26.972V26.24H76.7581V26.972H74.9341ZM79.547 35V28.652H80.435V35H79.547ZM78.527 29.372V28.652H80.435V29.372H78.527ZM79.739 27.476C79.523 27.476 79.359 27.42 79.247 27.308C79.143 27.188 79.091 27.04 79.091 26.864C79.091 26.688 79.143 26.544 79.247 26.432C79.359 26.312 79.523 26.252 79.739 26.252C79.955 26.252 80.115 26.312 80.219 26.432C80.323 26.544 80.375 26.688 80.375 26.864C80.375 27.04 80.323 27.188 80.219 27.308C80.115 27.42 79.955 27.476 79.739 27.476ZM85.569 35.204C85.025 35.204 84.553 35.112 84.153 34.928C83.753 34.736 83.425 34.484 83.169 34.172C82.913 33.852 82.721 33.496 82.593 33.104C82.473 32.712 82.413 32.308 82.413 31.892V31.724C82.413 31.316 82.473 30.916 82.593 30.524C82.721 30.132 82.913 29.78 83.169 29.468C83.425 29.156 83.745 28.908 84.129 28.724C84.521 28.532 84.977 28.436 85.497 28.436C86.161 28.436 86.713 28.584 87.153 28.88C87.601 29.176 87.937 29.556 88.161 30.02C88.385 30.476 88.497 30.968 88.497 31.496V31.964H82.821V31.268H87.873L87.645 31.616C87.645 31.144 87.561 30.732 87.393 30.38C87.233 30.02 86.993 29.74 86.673 29.54C86.361 29.332 85.969 29.228 85.497 29.228C85.001 29.228 84.589 29.344 84.261 29.576C83.933 29.808 83.685 30.116 83.517 30.5C83.357 30.884 83.277 31.32 83.277 31.808C83.277 32.288 83.357 32.728 83.517 33.128C83.685 33.52 83.937 33.832 84.273 34.064C84.617 34.296 85.049 34.412 85.569 34.412C86.121 34.412 86.569 34.288 86.913 34.04C87.257 33.784 87.469 33.484 87.549 33.14H88.389C88.309 33.564 88.141 33.932 87.885 34.244C87.629 34.548 87.305 34.784 86.913 34.952C86.521 35.12 86.073 35.204 85.569 35.204ZM90.5295 35V28.16C90.5295 27.496 90.7015 27.004 91.0455 26.684C91.3895 26.364 91.9055 26.204 92.5935 26.204H93.3975V26.972H92.4255C92.0895 26.972 91.8335 27.06 91.6575 27.236C91.4815 27.412 91.3935 27.66 91.3935 27.98V35H90.5295ZM89.6055 29.396V28.7H93.5295V29.396H89.6055ZM97.5629 35.204C97.0189 35.204 96.5469 35.112 96.1469 34.928C95.7469 34.736 95.4189 34.484 95.1629 34.172C94.9069 33.852 94.7149 33.496 94.5869 33.104C94.4669 32.712 94.4069 32.308 94.4069 31.892V31.724C94.4069 31.316 94.4669 30.916 94.5869 30.524C94.7149 30.132 94.9069 29.78 95.1629 29.468C95.4189 29.156 95.7389 28.908 96.1229 28.724C96.5149 28.532 96.9709 28.436 97.4909 28.436C98.1549 28.436 98.7069 28.584 99.1469 28.88C99.5949 29.176 99.9309 29.556 100.155 30.02C100.379 30.476 100.491 30.968 100.491 31.496V31.964H94.8149V31.268H99.8669L99.6389 31.616C99.6389 31.144 99.5549 30.732 99.3869 30.38C99.2269 30.02 98.9869 29.74 98.6669 29.54C98.3549 29.332 97.9629 29.228 97.4909 29.228C96.9949 29.228 96.5829 29.344 96.2549 29.576C95.9269 29.808 95.6789 30.116 95.5109 30.5C95.3509 30.884 95.2709 31.32 95.2709 31.808C95.2709 32.288 95.3509 32.728 95.5109 33.128C95.6789 33.52 95.9309 33.832 96.2669 34.064C96.6109 34.296 97.0429 34.412 97.5629 34.412C98.1149 34.412 98.5629 34.288 98.9069 34.04C99.2509 33.784 99.4629 33.484 99.5429 33.14H100.383C100.303 33.564 100.135 33.932 99.8789 34.244C99.6229 34.548 99.2989 34.784 98.9069 34.952C98.5149 35.12 98.0669 35.204 97.5629 35.204ZM102.343 35V28.652H103.063V31.304H102.991C102.991 30.376 103.195 29.692 103.603 29.252C104.011 28.804 104.651 28.58 105.523 28.58H105.727V29.396H105.355C104.667 29.396 104.143 29.576 103.783 29.936C103.423 30.288 103.243 30.808 103.243 31.496V35H102.343ZM110.579 35.204C110.019 35.204 109.527 35.08 109.103 34.832C108.687 34.584 108.359 34.236 108.119 33.788C107.887 33.34 107.763 32.824 107.747 32.24H108.023V35H107.303V26.24H108.203V30.62L107.855 31.424C107.871 30.784 107.999 30.244 108.239 29.804C108.487 29.356 108.815 29.016 109.223 28.784C109.639 28.552 110.111 28.436 110.639 28.436C111.103 28.436 111.523 28.524 111.899 28.7C112.275 28.876 112.595 29.116 112.859 29.42C113.131 29.724 113.335 30.076 113.471 30.476C113.615 30.868 113.687 31.284 113.687 31.724V31.892C113.687 32.324 113.615 32.74 113.471 33.14C113.327 33.532 113.119 33.884 112.847 34.196C112.583 34.508 112.259 34.756 111.875 34.94C111.491 35.116 111.059 35.204 110.579 35.204ZM110.483 34.412C110.963 34.412 111.375 34.296 111.719 34.064C112.063 33.832 112.327 33.52 112.511 33.128C112.695 32.736 112.787 32.296 112.787 31.808C112.787 31.312 112.691 30.872 112.499 30.488C112.315 30.096 112.047 29.788 111.695 29.564C111.351 29.34 110.947 29.228 110.483 29.228C110.051 29.228 109.659 29.324 109.307 29.516C108.955 29.708 108.675 29.98 108.467 30.332C108.267 30.676 108.167 31.084 108.167 31.556V32.144C108.167 32.592 108.267 32.988 108.467 33.332C108.675 33.668 108.955 33.932 109.307 34.124C109.659 34.316 110.051 34.412 110.483 34.412ZM119.49 35V33.092H119.346V30.836C119.346 30.364 119.222 30.004 118.974 29.756C118.726 29.5 118.342 29.372 117.822 29.372C117.582 29.372 117.338 29.376 117.09 29.384C116.85 29.392 116.618 29.404 116.394 29.42C116.178 29.428 115.986 29.44 115.818 29.456V28.664C115.994 28.648 116.174 28.632 116.358 28.616C116.542 28.6 116.73 28.592 116.922 28.592C117.122 28.584 117.314 28.58 117.498 28.58C118.146 28.58 118.666 28.66 119.058 28.82C119.458 28.98 119.75 29.232 119.934 29.576C120.118 29.912 120.21 30.36 120.21 30.92V35H119.49ZM117.342 35.168C116.894 35.168 116.498 35.088 116.154 34.928C115.81 34.768 115.542 34.536 115.35 34.232C115.166 33.928 115.074 33.56 115.074 33.128C115.074 32.704 115.17 32.344 115.362 32.048C115.562 31.752 115.846 31.528 116.214 31.376C116.59 31.216 117.042 31.136 117.57 31.136H119.43V31.82H117.51C117.006 31.82 116.618 31.944 116.346 32.192C116.082 32.432 115.95 32.748 115.95 33.14C115.95 33.54 116.09 33.86 116.37 34.1C116.65 34.332 117.03 34.448 117.51 34.448C117.806 34.448 118.09 34.396 118.362 34.292C118.634 34.18 118.862 33.996 119.046 33.74C119.23 33.476 119.33 33.116 119.346 32.66L119.61 33.032C119.578 33.504 119.466 33.9 119.274 34.22C119.082 34.532 118.822 34.768 118.494 34.928C118.166 35.088 117.782 35.168 117.342 35.168ZM122.578 35V28.652H123.298V31.304H123.226C123.226 30.376 123.43 29.692 123.838 29.252C124.246 28.804 124.886 28.58 125.758 28.58H125.962V29.396H125.59C124.902 29.396 124.378 29.576 124.018 29.936C123.658 30.288 123.478 30.808 123.478 31.496V35H122.578Z" fill="#A10C0C"/>
</svg>
